# xmcd CD database file
#
# Track frame offsets:
#	150
#	14930
#	29557
#	44130
#	61142
#	74745
#	88850
#	107245
#	123257
#	136612
#	151670
#	165885
#
# Disc length: 2388 seconds
#
# Revision: 1
# Processed by: cddbd v1.4PL0 Copyright (c) Steve Scherf et al.
# Submitted via: CDex 1.40Release
#
DISCID=a409520c
DTITLE=Reese Klaiber - Where I Come From
DYEAR=1900
DGENRE=Country
TTITLE0=Cowboy Up
TTITLE1=A Little Love
TTITLE2=Where I Come From
TTITLE3=Wild Rose
TTITLE4=Forever
TTITLE5=She's Sittin' Pretty
TTITLE6=Better Man Than I
TTITLE7=Sound Of My Heart Breaking
TTITLE8=Alberta's Cowboys
TTITLE9=Out Of My Hands
TTITLE10=Have I Ever Told You
TTITLE11=Makin' Noise
EXTD=ID3G: 2
EXTT0=
EXTT1=
EXTT2=
EXTT3=
EXTT4=
EXTT5=
EXTT6=
EXTT7=
EXTT8=
EXTT9=
EXTT10=
EXTT11=
PLAYORDER=
